HIERARCHY
ROOT root
{
	OFFSET	0	13.1	24.9
	CHANNELS 6  Xposition Yposition Zposition Xrotation Yrotation Zrotation
	JOINT spine_1
	{
		OFFSET	0	9.99999	0
		CHANNELS 3  Xrotation Yrotation Zrotation
		JOINT spine_2
		{
			OFFSET	0	112	-10
			CHANNELS 3  Xrotation Yrotation Zrotation
			JOINT spine_3
			{
				OFFSET	0	206.5	19.3
				CHANNELS 3  Xrotation Yrotation Zrotation
				JOINT spine_4
				{
					OFFSET	0	110.4	14.6
					CHANNELS 3  Xrotation Yrotation Zrotation
					JOINT neck_1
					{
						OFFSET	0	71.8	-50.3
						CHANNELS 3  Xrotation Yrotation Zrotation
						JOINT neck_2
						{
							OFFSET	0	86.2	-25.8
							CHANNELS 3  Xrotation Yrotation Zrotation
							JOINT head_ee
							{
								OFFSET	0	179.8	-8.7
								CHANNELS 3  Xrotation Yrotation Zrotation
								End Site
								{
									OFFSET	1	0	0
								}
							}
						}
					}
					JOINT left_clavicle
					{
						OFFSET	-43.2	22.4	-70.8
						CHANNELS 3  Xrotation Yrotation Zrotation
						JOINT left_shoulder
						{
							OFFSET	-93.9	-5.79999	48.7
							CHANNELS 3  Xrotation Yrotation Zrotation
							JOINT left_elbow
							{
								OFFSET	-291.4	-30.8	15.2
								CHANNELS 3  Xrotation Yrotation Zrotation
								JOINT left_lowarm_twist
								{
									OFFSET	-110.7	-3.89999	13.6
									CHANNELS 3  Xrotation Yrotation Zrotation
									JOINT left_hand
									{
										OFFSET	-110.7	-3.89999	13.6
										CHANNELS 3  Xrotation Yrotation Zrotation
										JOINT left_ee
										{
											OFFSET	-80.8	-5.10001	12.1
											CHANNELS 3  Xrotation Yrotation Zrotation
											End Site
											{
												OFFSET	1	0	0
											}
										}
									}
								}
							}
						}
					}
					JOINT right_clavicle
					{
						OFFSET	43.2	22.4	-70.8
						CHANNELS 3  Xrotation Yrotation Zrotation
						JOINT right_shoulder
						{
							OFFSET	93.9	-5.79999	48.7
							CHANNELS 3  Xrotation Yrotation Zrotation
							JOINT right_elbow
							{
								OFFSET	291.4	-30.8	15.2
								CHANNELS 3  Xrotation Yrotation Zrotation
								JOINT right_lowarm_twist
								{
									OFFSET	110.7	-3.89999	13.6
									CHANNELS 3  Xrotation Yrotation Zrotation
									JOINT right_hand
									{
										OFFSET	110.7	-3.89999	13.6
										CHANNELS 3  Xrotation Yrotation Zrotation
										JOINT right_ee
										{
											OFFSET	80.8	-5.10001	12.1
											CHANNELS 3  Xrotation Yrotation Zrotation
											End Site
											{
												OFFSET	1	0	0
											}
										}
									}
								}
							}
						}
					}
				}
			}
		}
	}
	JOINT left_hip
	{
		OFFSET	-82.8	-127.5	0.300001
		CHANNELS 3  Xrotation Yrotation Zrotation
		JOINT left_knee
		{
			OFFSET	-28.2	-396.7	2.2
			CHANNELS 3  Xrotation Yrotation Zrotation
			JOINT left_ankle
			{
				OFFSET	-11.7	-411.3	35.4
				CHANNELS 3  Xrotation Yrotation Zrotation
				JOINT left_toes
				{
					OFFSET	0	-60	-88.6
					CHANNELS 3  Xrotation Yrotation Zrotation
					JOINT left_foot_ee
					{
						OFFSET	-22.5	-16.5	-42.2
						CHANNELS 3  Xrotation Yrotation Zrotation
						End Site
						{
							OFFSET	1	0	0
						}
					}
				}
			}
		}
	}
	JOINT right_hip
	{
		OFFSET	82.8	-127.5	0.300001
		CHANNELS 3  Xrotation Yrotation Zrotation
		JOINT right_knee
		{
			OFFSET	28.2	-396.7	2.2
			CHANNELS 3  Xrotation Yrotation Zrotation
			JOINT right_ankle
			{
				OFFSET	11.7	-411.3	35.4
				CHANNELS 3  Xrotation Yrotation Zrotation
				JOINT right_toes
				{
					OFFSET	0	-60	-88.6
					CHANNELS 3  Xrotation Yrotation Zrotation
					JOINT right_foot_ee
					{
						OFFSET	22.5	-16.5	-42.2
						CHANNELS 3  Xrotation Yrotation Zrotation
						End Site
						{
							OFFSET	1	0	0
						}
					}
				}
			}
		}
	}
}
MOTION
Frames: 11
Frame Time: 0.02
1582.63 727.744 -604.093 150.24 -76.7095 144.791 -2.66563 0.413828 3.94169 -2.65701 0.16237 3.95999 -2.63572 -0.853617 3.87044 -2.65655 -0.232142 3.95652 -6.9039 0.902929 -9.02037 -6.6532 8.21628 -8.87746 -0.0 0.0 -0.0 -6.43118 20.278 -7.12922 0.903385 -9.77232 78.2523 0.181639 -5.14168 0.00815553 20.4932 0.261228 -2.59086 -1.65422 28.9727 2.38379 -0.0 0.0 -0.0 6.61838 11.5075 -12.5094 9.8446 18.2879 -70.2635 3.59683 60.6816 -2.10571 15.4102 -0.283297 1.94222 -1.10528 -1.39878 6.77914 0.0 0.0 0.0 -8.51499 29.2544 5.76945 5.18837 -0.248157 -0.757053 34.197 22.7837 -4.51855 -32.1738 0.0 0.0 -0.0 0.0 -0.0 -3.51857 29.2946 -0.586985 -0.491008 -0.0199061 -0.072721 39.2593 8.86769 4.93701 13.6773 -0.0 -0.0 0.0 0.0 0.0 
1592.42 728.304 -605.818 151.931 -76.676 146.625 -2.51265 0.412268 3.88749 -2.50426 0.164254 3.90581 -2.48359 -0.827771 3.82075 -2.50389 -0.214449 3.90338 -6.27853 0.116932 -9.05582 -6.02544 6.86916 -9.12029 -0.0 0.0 -0.0 -6.15295 20.1742 -6.73955 0.925365 -9.67926 78.1681 0.187559 -5.30833 0.00869476 20.7923 0.258138 -2.62894 -1.64341 29.0315 2.46857 -0.0 0.0 -0.0 6.63287 12.052 -12.5122 7.92874 17.8984 -69.7795 3.71065 61.4365 -2.20532 15.9115 -0.283679 2.00624 -1.12672 -0.450358 7.34543 0.0 0.0 0.0 -9.28436 29.8236 6.05875 5.65908 -0.274052 -0.824587 33.8533 22.9001 -4.48479 -31.2036 0.0 0.0 -0.0 0.0 -0.0 -3.44266 28.2328 -0.611807 -1.33716 -0.0527436 -0.198422 39.0795 8.83475 4.92043 14.8485 -0.0 -0.0 0.0 0.0 0.0 
1601.03 727.252 -603.047 150.603 -76.9868 145.47 -2.35752 0.331037 3.79205 -2.34952 0.0892466 3.8054 -2.33512 -0.865453 3.7069 -2.35419 -0.2696 3.7969 -5.96821 0.245872 -7.26881 -5.80282 5.82314 -7.30694 -0.0 0.0 -0.0 -6.18301 19.9483 -6.85067 1.82241 -9.54948 77.7888 0.192292 -5.44148 0.009138 21.2461 0.25307 -2.68668 -1.55064 28.8233 2.87186 -0.0 0.0 -0.0 6.47412 11.1409 -12.222 5.90591 17.4866 -70.1569 3.84006 62.2524 -2.31942 15.8104 -0.283647 1.99332 -0.961905 1.66362 7.16985 0.0 0.0 0.0 -9.84668 29.445 5.60507 5.91453 -0.288337 -0.861149 34.7195 21.8993 -4.55267 -30.4882 0.0 0.0 -0.0 0.0 -0.0 -3.56993 29.1645 -0.556444 -2.84022 -0.106478 -0.422833 38.6965 8.26924 4.87473 15.4941 -0.0 -0.0 0.0 0.0 0.0 
1607.69 728.166 -598.82 151.658 -76.448 146.757 -2.29687 0.439811 3.79581 -2.28888 0.197562 3.81606 -2.267 -0.758576 3.74522 -2.28654 -0.158019 3.8179 -5.24529 1.4004 -4.80304 -5.16309 6.17141 -4.64253 -0.0 0.0 -0.0 -6.02236 19.418 -6.75846 3.05733 -9.60114 76.9197 0.19325 -5.46842 0.00922907 21.1332 0.254373 -2.67233 -1.65398 28.8186 2.31467 -0.0 0.0 -0.0 6.93228 10.9613 -13.2024 4.89872 17.4336 -71.2618 3.57839 60.5559 -2.08964 16.0108 -0.283688 2.01892 -0.8877 0.878633 6.32426 0.0 0.0 0.0 -10.1624 29.6737 4.89784 5.82732 -0.283442 -0.848674 34.1861 22.2092 -4.50382 -29.9087 0.0 0.0 -0.0 0.0 -0.0 -3.51531 29.34 -1.45088 -3.19188 -0.118198 -0.47553 38.8501 7.67296 4.87672 16.2223 -0.0 -0.0 0.0 0.0 0.0 
1613.12 730.22 -599.179 154.097 -75.6835 149.086 -2.24422 0.486413 3.68453 -2.23671 0.251136 3.70797 -2.21217 -0.676112 3.65452 -2.23079 -0.0908798 3.71534 -6.63088 1.92316 -3.72493 -6.58364 6.27633 -3.36236 -0.0 0.0 -0.0 -5.85622 19.1565 -6.57754 4.0187 -9.70149 76.7596 0.197743 -5.59477 0.00966223 21.6458 0.248227 -2.73751 -1.48955 28.7602 3.17204 -0.0 0.0 -0.0 6.98956 11.5067 -13.2989 3.39883 18.4416 -70.8677 3.45543 59.6918 -1.98303 15.5112 -0.283419 1.95511 -0.756609 0.994864 5.49296 0.0 0.0 0.0 -10.8078 30.0402 5.30886 5.56028 -0.26857 -0.810429 34.1967 21.6609 -4.49247 -29.6405 0.0 0.0 -0.0 0.0 -0.0 -4.06323 28.707 -1.27164 -2.52944 -0.095851 -0.376321 37.9631 7.13411 4.78698 16.511 -0.0 -0.0 0.0 0.0 0.0 
1616.57 730.62 -595.292 155.981 -74.967 150.831 -2.17438 0.50589 3.64754 -2.16702 0.272922 3.67229 -2.14147 -0.641619 3.62615 -2.15981 -0.0612888 3.68189 -6.30349 2.61927 -1.34356 -6.29343 5.8322 -0.849613 -0.0 0.0 -0.0 -5.74719 18.611 -6.56054 5.98457 -9.63723 76.3298 0.218546 -6.179 0.0117959 21.9777 0.243936 -2.77969 -1.47761 28.8442 3.27361 -0.0 0.0 -0.0 7.39957 11.4703 -14.1753 1.59905 18.4054 -70.5783 3.20952 57.8185 -1.77275 15.6629 -0.283559 1.97449 -0.734605 1.02225 5.35693 0.0 0.0 0.0 -10.7265 29.2084 4.96187 4.86515 -0.230699 -0.710559 34.3644 22.7208 -4.53475 -29.7587 0.0 0.0 -0.0 0.0 -0.0 -3.75789 28.9545 -1.50805 -3.05416 -0.113646 -0.454883 37.0049 6.81109 4.69319 16.2576 -0.0 -0.0 0.0 0.0 0.0 
1620.73 728.805 -595.191 155.011 -74.7401 149.726 -2.17113 0.424278 3.58637 -2.16399 0.19536 3.60607 -2.14412 -0.700719 3.5428 -2.16161 -0.132786 3.60891 -6.94558 3.14751 0.933115 -6.94391 5.17022 1.56743 -0.0 0.0 -0.0 -5.6221 18.1685 -6.48665 7.08078 -10.0593 75.6948 0.261146 -7.37126 0.0168219 21.8395 0.245753 -2.76213 -1.53493 28.8663 2.97564 -0.0 0.0 -0.0 7.29187 11.1331 -13.96 0.711667 18.2989 -71.063 2.89795 55.1285 -1.51295 15.5515 -0.283461 1.96026 -0.788676 -1.1601 4.76677 0.0 0.0 0.0 -10.7788 28.5814 4.48611 3.66722 -0.168295 -0.537419 34.9456 22.3808 -4.58758 -29.0815 0.0 0.0 -0.0 0.0 -0.0 -4.71159 30.4209 -1.58565 -3.35325 -0.123467 -0.499735 37.2938 6.73853 4.71867 15.9651 -0.0 -0.0 0.0 0.0 0.0 
1626.82 732.128 -593.71 156.257 -74.2929 150.938 -2.174 0.416176 3.54741 -2.16702 0.189748 3.56668 -2.1478 -0.696649 3.5032 -2.1649 -0.13501 3.56916 -7.64626 3.56407 1.67202 -7.64205 5.44959 2.41727 -0.0 0.0 -0.0 -5.52025 17.8336 -6.41723 8.0824 -10.426 75.3581 0.338888 -9.52988 0.0282485 21.3638 0.251681 -2.70165 -1.6292 28.682 2.38546 -0.0 0.0 -0.0 7.4777 11.3372 -14.348 -1.18914 18.7033 -71.4938 2.65215 52.7142 -1.31424 15.2384 -0.283037 1.92027 -0.833125 -2.99969 4.25723 0.0 0.0 0.0 -11.1253 28.1522 4.23705 3.03848 -0.136997 -0.446045 33.6726 21.6745 -4.43735 -29.395 0.0 0.0 -0.0 0.0 -0.0 -5.27222 31.4325 -1.37828 -3.01126 -0.112219 -0.448454 36.3708 6.35035 4.62597 15.5995 -0.0 -0.0 0.0 0.0 0.0 
1627.47 729.37 -592.111 157.238 -73.2644 152.06 -1.97715 0.371785 3.47766 -1.97043 0.149877 3.49425 -1.95461 -0.705878 3.42557 -1.97095 -0.156361 3.49396 -8.08653 4.31011 3.63193 -8.0563 5.48345 4.53602 -0.0 0.0 -0.0 -5.46428 17.4294 -6.43653 9.332 -10.7223 74.697 0.409521 -11.4679 0.0411208 21.5401 0.249542 -2.72407 -1.67082 28.463 2.06111 -0.0 0.0 -0.0 7.61147 11.4102 -14.6311 -2.09684 18.5148 -71.4392 2.4088 50.0278 -1.12408 15.2416 -0.283042 1.92068 -0.825039 -3.72102 3.88752 0.0 0.0 0.0 -11.7389 28.8433 4.27088 2.65856 -0.118574 -0.39067 34.6803 22.0368 -4.55175 -28.8085 0.0 0.0 -0.0 0.0 -0.0 -5.37186 31.8838 -1.77649 -2.86915 -0.107454 -0.427165 37.0277 6.3632 4.68763 15.7264 -0.0 -0.0 0.0 0.0 0.0 
1636.57 729.95 -595.804 157.243 -73.1348 152.135 -1.86223 0.430331 3.43135 -1.85571 0.211246 3.45175 -1.8365 -0.628865 3.40061 -1.85263 -0.0842454 3.45718 -9.5045 3.34858 2.55965 -9.4928 4.53988 3.31001 -0.0 0.0 -0.0 -4.51205 17.9855 -4.80635 9.53371 -11.0066 72.6478 0.493006 -13.7244 0.0593306 19.6681 0.268722 -2.48573 -1.60659 25.6098 1.10392 -0.0 0.0 -0.0 7.77408 10.992 -14.9957 -2.67008 16.4388 -71.6334 2.03573 45.2355 -0.848208 15.4428 -0.283339 1.94637 -0.876924 -6.25896 3.11556 0.0 0.0 0.0 -12.0781 25.8737 4.65606 1.77589 -0.0771934 -0.261566 33.4857 19.0337 -4.36509 -29.7179 0.0 0.0 -0.0 0.0 -0.0 -5.18194 33.1863 -1.97783 -4.76308 -0.166597 -0.711797 37.9208 5.56247 4.75656 15.7652 -0.0 -0.0 0.0 0.0 0.0 
1642.44 731.818 -597.956 157.846 -73.1684 152.418 -1.70346 0.444451 3.39962 -1.69706 0.227354 3.42098 -1.67734 -0.596373 3.37631 -1.69325 -0.0559897 3.42806 -10.4019 3.60008 3.15174 -10.3829 4.67629 3.97921 -0.0 0.0 -0.0 -3.96116 17.544 -4.05204 9.94125 -11.3093 71.599 0.597945 -16.4997 0.0866967 18.3588 0.277504 -2.31874 -1.62527 24.499 0.487516 -0.0 0.0 -0.0 7.88712 10.5953 -15.252 -3.43416 16.145 -71.4235 1.94099 43.8712 -0.781737 15.2662 -0.283083 1.92382 -0.925827 -6.9532 3.12946 0.0 0.0 0.0 -12.4834 25.0802 4.97008 1.53422 -0.0662116 -0.226111 33.3462 17.8228 -4.32997 -29.8062 0.0 0.0 -0.0 0.0 -0.0 -5.42479 34.2419 -1.27325 -5.19274 -0.178702 -0.776625 38.2859 5.53832 4.78915 15.6191 -0.0 -0.0 0.0 0.0 0.0 
